<svg id="Layer_1" data-name="Layer 1" xmlns="http://www.w3.org/2000/svg" viewBox="0 0 1468 932"><defs><style>.cls-1{fill:#363b45;}.cls-2{fill:#fff;}.cls-3{fill:#6990c9;}</style></defs><title>Official Logo</title><rect class="cls-1" x="462" y="192" width="487" height="487"/><path class="cls-2" d="M365.9,158.1H508.05c89.86,0,134,50.1,134,142.09V591c0,92-44.12,142.09-134,142.09H365.9Zm89.87,82.13V650.91h50.65c28.59,0,45.74-14.79,45.74-55.86v-299c0-41.06-17.15-55.85-45.74-55.85Z"/><path class="cls-2" d="M869.13,566.31,930.4,158.1h125V733h-85V320.72L908.34,733h-85l-67-406.57V733H678V158.1H803Z"/><path class="cls-3" d="M489.6,778.05v5.65c0,6.81-3.61,10.7-10.58,10.7s-10.58-3.89-10.58-10.7V761.58c0-6.8,3.61-10.69,10.58-10.69s10.58,3.89,10.58,10.69v4.14h-6.71v-4.56c0-3-1.42-4.19-3.68-4.19s-3.68,1.15-3.68,4.19v23c0,3,1.42,4.13,3.68,4.13s3.68-1.09,3.68-4.13v-6.08Z"/><path class="cls-3" d="M553.94,793.91c-.38-1.09-.64-1.76-.64-5.23V782c0-4-1.42-5.41-4.65-5.41H546.2v17.32h-7.1V751.38h10.71c7.36,0,10.52,3.22,10.52,9.78v3.34c0,4.38-1.48,7.23-4.64,8.63,3.55,1.4,4.71,4.62,4.71,9v6.56a11.87,11.87,0,0,0,.77,5.17Zm-7.74-36.46v13.07H549c2.64,0,4.25-1.1,4.25-4.5v-4.19c0-3-1.09-4.38-3.61-4.38Z"/><path class="cls-3" d="M617.32,769.3h9.74v6.08h-9.74v12.45h12.26v6.08H610.22V751.38h19.36v6.07H617.32Z"/><path class="cls-3" d="M702.12,793.91H695l-1.23-7.72H685l-1.23,7.72h-6.51l7.22-42.53h10.39Zm-16.2-13.49h6.84l-3.42-21.51Z"/><path class="cls-3" d="M746.07,751.38H768v6.07h-7.42v36.46h-7.1V757.45h-7.42Z"/><path class="cls-3" d="M816.29,751.38h7.09v42.53h-7.09Z"/><path class="cls-3" d="M884.43,786.07l5.43-34.69h6.51l-7,42.53H878.82l-7-42.53H879Z"/><path class="cls-3" d="M951.94,769.3h9.74v6.08h-9.74v12.45H964.2v6.08H944.84V751.38H964.2v6.07H951.94Z"/></svg>